<svg width="36" height="37" viewBox="0 0 36 37" fill="none" xmlns="http://www.w3.org/2000/svg">
<g id="Emoji">
<path id="Vector" d="M11.6256 7.69667C11.5136 7.80867 11.4286 7.94367 11.3576 8.09167L11.3496 8.08367L0.133635 33.3497L0.144635 33.3607C-0.0633649 33.7637 0.284635 34.5837 0.997635 35.2977C1.71064 36.0107 2.53063 36.3587 2.93363 36.1507L2.94363 36.1607L28.2096 24.9437L28.2016 24.9347C28.3486 24.8647 28.4836 24.7797 28.5966 24.6657C30.1586 23.1037 27.6256 18.0387 22.9406 13.3527C18.2536 8.66667 13.1886 6.13467 11.6256 7.69667Z" fill="#DD2E44"/>
<path id="Vector_2" d="M12.9996 12.2087L0.415635 32.7147L0.133635 33.3497L0.144635 33.3607C-0.0633649 33.7637 0.284635 34.5837 0.997635 35.2977C1.22964 35.5297 1.47064 35.7057 1.70664 35.8547L16.9996 17.2087L12.9996 12.2087Z" fill="#EA596E"/>
<path id="Vector_3" d="M23.0117 13.2747C27.6817 17.9467 30.2747 22.9267 28.8007 24.3987C27.3277 25.8727 22.3477 23.2807 17.6747 18.6107C13.0037 13.9387 10.4117 8.95666 11.8847 7.48366C13.3587 6.01066 18.3387 8.60266 23.0117 13.2747Z" fill="#A0041E"/>
<path id="Vector_4" d="M18.5898 13.8177C18.3908 13.9787 18.1308 14.0627 17.8558 14.0327C16.9878 13.9387 16.2578 13.6367 15.7468 13.1597C15.2058 12.6547 14.9388 11.9767 15.0118 11.2977C15.1398 10.1057 16.3358 9.01167 18.3748 9.23167C19.1678 9.31667 19.5218 9.06167 19.5338 8.93967C19.5478 8.81867 19.2568 8.49367 18.4638 8.40767C17.5958 8.31367 16.8658 8.01167 16.3538 7.53467C15.8128 7.02967 15.5448 6.35167 15.6188 5.67267C15.7488 4.48067 16.9438 3.38667 18.9808 3.60767C19.5588 3.66967 19.8638 3.55067 19.9928 3.47367C20.0958 3.41067 20.1368 3.35067 20.1408 3.31567C20.1528 3.19467 19.8658 2.86967 19.0708 2.78367C18.5218 2.72367 18.1238 2.23167 18.1848 1.68167C18.2438 1.13267 18.7348 0.73567 19.2858 0.79567C21.3228 1.01467 22.2588 2.33767 22.1298 3.53067C21.9998 4.72467 20.8048 5.81667 18.7658 5.59767C18.1878 5.53467 17.8858 5.65467 17.7558 5.73167C17.6528 5.79367 17.6108 5.85467 17.6068 5.88867C17.5938 6.01067 17.8828 6.33467 18.6778 6.42067C20.7148 6.64067 21.6508 7.96267 21.5218 9.15567C21.3928 10.3477 20.1978 11.4417 18.1598 11.2207C17.5818 11.1587 17.2778 11.2787 17.1478 11.3547C17.0438 11.4187 17.0038 11.4787 16.9998 11.5127C16.9868 11.6337 17.2758 11.9587 18.0698 12.0447C18.6178 12.1047 19.0168 12.5977 18.9558 13.1467C18.9278 13.4207 18.7888 13.6577 18.5898 13.8177Z" fill="#AA8DD8"/>
<path id="Vector_5" d="M30.6612 23.0657C32.6342 22.5087 33.9952 23.3887 34.3192 24.5437C34.6432 25.6977 33.9412 27.1587 31.9692 27.7137C31.1992 27.9297 30.9682 28.2977 30.9992 28.4147C31.0332 28.5327 31.4242 28.7267 32.1922 28.5097C34.1642 27.9547 35.5252 28.8347 35.8492 29.9887C36.1752 31.1437 35.4712 32.6027 33.4982 33.1587C32.7292 33.3747 32.4972 33.7437 32.5312 33.8607C32.5642 33.9777 32.9542 34.1717 33.7232 33.9557C34.2532 33.8067 34.8072 34.1157 34.9562 34.6467C35.1042 35.1787 34.7952 35.7307 34.2632 35.8807C32.2922 36.4357 30.9302 35.5577 30.6042 34.4017C30.2802 33.2477 30.9832 31.7887 32.9572 31.2327C33.7272 31.0157 33.9582 30.6487 33.9242 30.5307C33.8922 30.4137 33.5022 30.2187 32.7342 30.4347C30.7602 30.9907 29.4002 30.1127 29.0752 28.9557C28.7502 27.8017 29.4532 26.3427 31.4262 25.7857C32.1942 25.5707 32.4252 25.2007 32.3932 25.0847C32.3592 24.9667 31.9702 24.7727 31.2012 24.9887C30.6692 25.1387 30.1182 24.8287 29.9682 24.2977C29.8192 23.7677 30.1292 23.2157 30.6612 23.0657Z" fill="#77B255"/>
<path id="Vector_6" d="M23.0008 20.3687C22.7068 20.3687 22.4168 20.2397 22.2188 19.9937C21.8738 19.5617 21.9448 18.9327 22.3748 18.5877C22.5928 18.4127 27.7928 14.3287 35.1418 15.3797C35.6888 15.4577 36.0688 15.9637 35.9908 16.5107C35.9128 17.0567 35.4108 17.4407 34.8588 17.3587C28.3658 16.4367 23.6718 20.1127 23.6258 20.1497C23.4398 20.2977 23.2198 20.3687 23.0008 20.3687Z" fill="#AA8DD8"/>
<path id="Vector_7" d="M5.75397 16.2087C5.65897 16.2087 5.56197 16.1947 5.46597 16.1667C4.93697 16.0077 4.63697 15.4507 4.79597 14.9217C5.92897 11.1487 6.95597 5.12768 5.69397 3.55768C5.55297 3.37968 5.33997 3.20468 4.85197 3.24168C3.91397 3.31368 4.00297 5.29268 4.00397 5.31268C4.04597 5.86368 3.63197 6.34368 3.08197 6.38468C2.52297 6.41868 2.05097 6.01268 2.00997 5.46168C1.90697 4.08268 2.33597 1.42668 4.70197 1.24768C5.75797 1.16768 6.63497 1.53468 7.25397 2.30468C9.62497 5.25568 7.21797 13.8107 6.71197 15.4967C6.58197 15.9297 6.18397 16.2087 5.75397 16.2087Z" fill="#77B255"/>
<path id="Vector_8" d="M25.5 11.2087C26.3284 11.2087 27 10.5371 27 9.70868C27 8.88025 26.3284 8.20868 25.5 8.20868C24.6716 8.20868 24 8.88025 24 9.70868C24 10.5371 24.6716 11.2087 25.5 11.2087Z" fill="#5C913B"/>
<path id="Vector_9" d="M2 20.2087C3.10457 20.2087 4 19.3132 4 18.2087C4 17.1041 3.10457 16.2087 2 16.2087C0.89543 16.2087 0 17.1041 0 18.2087C0 19.3132 0.89543 20.2087 2 20.2087Z" fill="#9266CC"/>
<path id="Vector_10" d="M32.5 21.2087C33.3284 21.2087 34 20.5371 34 19.7087C34 18.8803 33.3284 18.2087 32.5 18.2087C31.6716 18.2087 31 18.8803 31 19.7087C31 20.5371 31.6716 21.2087 32.5 21.2087Z" fill="#5C913B"/>
<path id="Vector_11" d="M23.5 33.2087C24.3284 33.2087 25 32.5371 25 31.7087C25 30.8803 24.3284 30.2087 23.5 30.2087C22.6716 30.2087 22 30.8803 22 31.7087C22 32.5371 22.6716 33.2087 23.5 33.2087Z" fill="#5C913B"/>
<path id="Vector_12" d="M28 6.20868C29.1046 6.20868 30 5.31325 30 4.20868C30 3.10411 29.1046 2.20868 28 2.20868C26.8954 2.20868 26 3.10411 26 4.20868C26 5.31325 26.8954 6.20868 28 6.20868Z" fill="#FFCC4D"/>
<path id="Vector_13" d="M32.5 10.2087C33.3284 10.2087 34 9.53711 34 8.70868C34 7.88025 33.3284 7.20868 32.5 7.20868C31.6716 7.20868 31 7.88025 31 8.70868C31 9.53711 31.6716 10.2087 32.5 10.2087Z" fill="#FFCC4D"/>
<path id="Vector_14" d="M29.5 14.2087C30.3284 14.2087 31 13.5371 31 12.7087C31 11.8803 30.3284 11.2087 29.5 11.2087C28.6716 11.2087 28 11.8803 28 12.7087C28 13.5371 28.6716 14.2087 29.5 14.2087Z" fill="#FFCC4D"/>
<path id="Vector_15" d="M7.5 25.2087C8.32843 25.2087 9 24.5371 9 23.7087C9 22.8803 8.32843 22.2087 7.5 22.2087C6.67157 22.2087 6 22.8803 6 23.7087C6 24.5371 6.67157 25.2087 7.5 25.2087Z" fill="#FFCC4D"/>
</g>
</svg>
