<svg width="150" height="40" viewBox="0 0 150 40" fill="none" xmlns="http://www.w3.org/2000/svg">
<g id="Brand" clip-path="url(#clip0_111_190)">
<path id="Vector" d="M0 30.6545V27.101L11.0505 12.1434V12.6392H0V8.96179H15.6175V12.4326L4.7301 27.1837L4.56699 26.9771H15.8621V30.6545H0Z" fill="#D4330F"/>
<path id="Vector_2" d="M32.9317 30.6545V16.5233C32.9317 15.3113 32.4967 14.3334 31.6268 13.5896C30.7841 12.8183 29.7103 12.4327 28.4055 12.4327C27.2094 12.4327 26.122 12.6806 25.1433 13.1764C24.1919 13.6723 23.322 14.4298 22.5336 15.449L19.8016 12.6806C21.0793 11.2757 22.4521 10.229 23.92 9.54031C25.4152 8.85165 27.0191 8.50732 28.7317 8.50732C30.3627 8.50732 31.7763 8.78279 32.9725 9.33371C34.1686 9.88464 35.0928 10.6973 35.7453 11.7716C36.3977 12.8183 36.7239 14.0992 36.7239 15.6143V30.6545H32.9317ZM26.5297 31.0677C25.1433 31.0677 23.9064 30.7923 22.8191 30.2414C21.7317 29.6904 20.8618 28.9329 20.2093 27.9688C19.5841 26.9771 19.2715 25.8202 19.2715 24.498C19.2715 23.341 19.4754 22.3218 19.8831 21.4403C20.2909 20.5588 20.889 19.8289 21.6773 19.2504C22.4928 18.6719 23.4987 18.2312 24.6948 17.9282C25.9181 17.6251 27.3181 17.4736 28.8948 17.4736H34.8482L34.4812 20.8618H28.3647C27.5492 20.8618 26.8152 20.9445 26.1627 21.1098C25.5375 21.2475 24.9938 21.4816 24.5317 21.8122C24.0967 22.1152 23.7705 22.4871 23.553 22.9278C23.3356 23.341 23.2268 23.8368 23.2268 24.4153C23.2268 25.0213 23.3763 25.5585 23.6754 26.0268C23.9744 26.4675 24.3822 26.8118 24.8987 27.0598C25.4152 27.3077 26.0132 27.4316 26.6928 27.4316C27.6715 27.4316 28.5958 27.2664 29.4657 26.9358C30.3627 26.5777 31.1511 26.0956 31.8307 25.4896C32.5375 24.8836 33.0812 24.2087 33.4618 23.465L34.4404 26.2334C33.8695 27.1975 33.1627 28.0377 32.32 28.7539C31.4773 29.4701 30.5666 30.0348 29.588 30.448C28.6093 30.8611 27.5899 31.0677 26.5297 31.0677Z" fill="#D4330F"/>
<path id="Vector_3" d="M42.0322 39.7448V8.96184H46.273V13.9202L45.6206 13.5483C45.7837 12.7219 46.2458 11.9368 47.007 11.1931C47.7681 10.4218 48.6923 9.802 49.7797 9.33372C50.8942 8.83788 52.036 8.58997 53.2049 8.58997C55.135 8.58997 56.8476 9.07203 58.3428 10.0361C59.8379 11.0003 61.0204 12.3225 61.8903 14.0028C62.7602 15.6831 63.1952 17.6114 63.1952 19.7875C63.1952 21.9361 62.7602 23.8644 61.8903 25.5723C61.0476 27.2526 59.8787 28.5886 58.3835 29.5802C56.8884 30.5444 55.203 31.0264 53.3272 31.0264C52.0767 31.0264 50.867 30.7785 49.6981 30.2827C48.5293 29.7593 47.5371 29.0982 46.7215 28.2993C45.906 27.5005 45.4031 26.6741 45.2128 25.8202L46.273 25.2417V39.7448H42.0322ZM52.634 27.1011C53.8845 27.1011 54.9991 26.7843 55.9777 26.1507C56.9564 25.5172 57.7311 24.6495 58.302 23.5476C58.8729 22.4458 59.1583 21.1924 59.1583 19.7875C59.1583 18.3827 58.8729 17.1431 58.302 16.0688C57.7583 14.9669 56.9971 14.0992 56.0185 13.4657C55.0398 12.8321 53.9117 12.5153 52.634 12.5153C51.3564 12.5153 50.2282 12.8321 49.2496 13.4657C48.2711 14.0717 47.4963 14.9256 46.9254 16.0275C46.3546 17.1293 46.0691 18.3827 46.0691 19.7875C46.0691 21.1924 46.3546 22.4458 46.9254 23.5476C47.4963 24.6495 48.2711 25.5172 49.2496 26.1507C50.2282 26.7843 51.3564 27.1011 52.634 27.1011Z" fill="#D4330F"/>
<path id="Vector_4" d="M72.8539 31.0677C71.0597 31.0677 69.4422 30.751 68.0014 30.1174C66.5607 29.4838 65.3645 28.5473 64.4131 27.3077L67.2675 24.8285C68.083 25.7926 68.9665 26.4951 69.9179 26.9358C70.8966 27.349 71.9976 27.5556 73.2209 27.5556C73.7102 27.5556 74.1587 27.5005 74.5665 27.3903C75.0014 27.2526 75.3684 27.0598 75.6675 26.8118C75.9937 26.5639 76.2383 26.2747 76.4014 25.9441C76.5645 25.586 76.6461 25.2004 76.6461 24.7872C76.6461 24.071 76.3878 23.4925 75.8713 23.0518C75.5995 22.8589 75.1645 22.6523 74.5665 22.432C73.9956 22.1841 73.248 21.9361 72.3238 21.6882C70.7471 21.275 69.4558 20.8067 68.45 20.2834C67.4442 19.76 66.6694 19.1677 66.1257 18.5066C65.7179 17.9833 65.4189 17.4186 65.2286 16.8125C65.0383 16.179 64.9432 15.4903 64.9432 14.7466C64.9432 13.5345 65.283 12.4602 65.9626 11.5236C66.6422 10.5871 67.5529 9.85709 68.6946 9.33371C69.8636 8.78279 71.1684 8.50732 72.6092 8.50732C73.615 8.50732 74.6073 8.64506 75.5859 8.92052C76.5917 9.19598 77.516 9.5954 78.3587 10.1188C79.2014 10.6422 79.9082 11.262 80.4791 11.9782L78.0733 14.6639C77.5568 14.1405 76.9859 13.686 76.3607 13.3004C75.7626 12.8872 75.151 12.5704 74.5257 12.35C73.9005 12.1297 73.3296 12.0195 72.8131 12.0195C72.2422 12.0195 71.7257 12.0746 71.2636 12.1848C70.8014 12.2949 70.4073 12.4602 70.081 12.6806C69.782 12.901 69.551 13.1764 69.3878 13.507C69.2247 13.8375 69.1432 14.2094 69.1432 14.6226C69.1704 14.9807 69.2519 15.325 69.3878 15.6556C69.551 15.9586 69.7684 16.2203 70.0403 16.4407C70.3393 16.661 70.7878 16.8952 71.3859 17.1431C71.984 17.391 72.7451 17.6251 73.6694 17.8455C75.0286 18.2036 76.1432 18.603 77.0131 19.0438C77.9102 19.457 78.617 19.939 79.1335 20.49C79.6772 21.0133 80.0577 21.6194 80.2752 22.308C80.4927 22.9967 80.6014 23.768 80.6014 24.6219C80.6014 25.8615 80.248 26.9771 79.5412 27.9688C78.8616 28.9329 77.9374 29.6904 76.7684 30.2414C75.5995 30.7923 74.2946 31.0677 72.8539 31.0677Z" fill="#D4330F"/>
<path id="Vector_5" d="M83.1914 30.6545V0.078125H87.3914V13.4243L86.6574 13.9201C86.9293 12.956 87.4594 12.0745 88.2477 11.2757C89.0361 10.4493 89.9739 9.78819 91.0613 9.29236C92.1487 8.76898 93.2633 8.50729 94.405 8.50729C96.0361 8.50729 97.3953 8.83785 98.4827 9.49896C99.57 10.1325 100.386 11.1104 100.929 12.4326C101.473 13.7549 101.745 15.4214 101.745 17.4323V30.6545H97.5448V17.7215C97.5448 16.4819 97.3817 15.4627 97.0555 14.6639C96.7293 13.8375 96.2264 13.2453 95.5468 12.8872C94.8671 12.5015 94.0244 12.3362 93.0186 12.3913C92.2031 12.3913 91.4555 12.5291 90.7759 12.8045C90.0963 13.0524 89.4982 13.4105 88.9817 13.8788C88.4924 14.3471 88.0982 14.898 87.7992 15.5316C87.5273 16.1376 87.3914 16.7987 87.3914 17.5149V30.6545H85.3118C84.9584 30.6545 84.605 30.6545 84.2516 30.6545C83.8982 30.6545 83.5448 30.6545 83.1914 30.6545Z" fill="#D4330F"/>
<path id="Vector_6" d="M115.027 31.0677C112.934 31.0677 111.058 30.5857 109.4 29.6216C107.769 28.6299 106.477 27.2939 105.526 25.6136C104.574 23.9057 104.099 21.9637 104.099 19.7875C104.099 17.6114 104.574 15.6831 105.526 14.0028C106.477 12.2949 107.769 10.9589 109.4 9.99482C111.058 9.00316 112.934 8.50732 115.027 8.50732C117.093 8.50732 118.941 9.00316 120.572 9.99482C122.231 10.9589 123.536 12.2949 124.487 14.0028C125.438 15.6831 125.914 17.6114 125.914 19.7875C125.914 21.9637 125.438 23.9057 124.487 25.6136C123.536 27.2939 122.231 28.6299 120.572 29.6216C118.941 30.5857 117.093 31.0677 115.027 31.0677ZM115.027 27.1837C116.304 27.1837 117.446 26.8669 118.452 26.2334C119.458 25.5723 120.246 24.6908 120.817 23.5889C121.388 22.4595 121.66 21.1924 121.633 19.7875C121.66 18.3551 121.388 17.088 120.817 15.9861C120.246 14.8567 119.458 13.9753 118.452 13.3417C117.446 12.7081 116.304 12.3914 115.027 12.3914C113.749 12.3914 112.594 12.7219 111.561 13.383C110.555 14.0166 109.767 14.8981 109.196 16.0275C108.625 17.1293 108.353 18.3827 108.38 19.7875C108.353 21.1924 108.625 22.4595 109.196 23.5889C109.767 24.6908 110.555 25.5723 111.561 26.2334C112.594 26.8669 113.749 27.1837 115.027 27.1837Z" fill="#D4330F"/>
<path id="Vector_7" d="M128.452 39.7448V8.96184H132.692V13.9202L132.04 13.5483C132.204 12.7219 132.665 11.9368 133.426 11.1931C134.188 10.4218 135.112 9.802 136.199 9.33372C137.314 8.83788 138.456 8.58997 139.624 8.58997C141.555 8.58997 143.268 9.07203 144.763 10.0361C146.258 11.0003 147.44 12.3225 148.31 14.0028C149.18 15.6831 149.615 17.6114 149.615 19.7875C149.615 21.9361 149.18 23.8644 148.31 25.5723C147.467 27.2526 146.298 28.5886 144.803 29.5802C143.308 30.5444 141.623 31.0264 139.747 31.0264C138.497 31.0264 137.287 30.7785 136.118 30.2827C134.949 29.7593 133.957 29.0982 133.141 28.2993C132.326 27.5005 131.823 26.6741 131.633 25.8202L132.692 25.2417V39.7448H128.452ZM139.054 27.1011C140.305 27.1011 141.419 26.7843 142.398 26.1507C143.376 25.5172 144.151 24.6495 144.722 23.5476C145.292 22.4458 145.578 21.1924 145.578 19.7875C145.578 18.3827 145.292 17.1431 144.722 16.0688C144.178 14.9669 143.417 14.0992 142.439 13.4657C141.46 12.8321 140.331 12.5153 139.054 12.5153C137.776 12.5153 136.648 12.8321 135.67 13.4657C134.691 14.0717 133.916 14.9256 133.345 16.0275C132.774 17.1293 132.489 18.3827 132.489 19.7875C132.489 21.1924 132.774 22.4458 133.345 23.5476C133.916 24.6495 134.691 25.5172 135.67 26.1507C136.648 26.7843 137.776 27.1011 139.054 27.1011Z" fill="#D4330F"/>
</g>
<defs>
<clipPath id="clip0_111_190">
<rect width="150" height="39.8438" fill="white" transform="translate(0 0.078125)"/>
</clipPath>
</defs>
</svg>
