<svg width="32" height="32" viewBox="0 0 32 32" fill="none" xmlns="http://www.w3.org/2000/svg">
<g id="shopping-cart-02">
<path id="Icon" d="M8.66718 22.6666H23.1061C24.3727 22.6666 25.006 22.6666 25.5222 22.4378C25.9773 22.2361 26.3668 21.911 26.6467 21.4994C26.9641 21.0325 27.0774 20.4094 27.304 19.1632L29.105 9.25744C29.1836 8.82553 29.2228 8.60957 29.1622 8.44095C29.1089 8.29301 29.0051 8.16864 28.8691 8.08981C28.7141 7.99996 28.4946 7.99996 28.0556 7.99996H6.66718M2.66699 2.66663H4.4222C4.74578 2.66663 4.90758 2.66663 5.03843 2.72573C5.15376 2.77782 5.25188 2.86167 5.32132 2.96746C5.40011 3.0875 5.42535 3.24731 5.47581 3.56693L9.19151 27.0997C9.24197 27.4193 9.26721 27.5791 9.34599 27.6991C9.41544 27.8049 9.51356 27.8888 9.62889 27.9409C9.75974 28 9.92153 28 10.2451 28H25.3337" stroke="black" stroke-width="3" stroke-linecap="round" stroke-linejoin="round"/>
</g>
</svg>
