<svg width="20" height="16" viewBox="0 0 20 16" fill="none" xmlns="http://www.w3.org/2000/svg">
<g id="Philippines (PH)" clip-path="url(#clip0_111_251)">
<path id="Vector" d="M0 0.5H20V8H0V0.5Z" fill="#0038A8"/>
<path id="Vector_2" d="M0 8H20V15.5H0V8Z" fill="#CE1126"/>
<path id="Vector_3" d="M12.9906 8L0 15.5V0.5" fill="white"/>
<g id="PH Flag">
<path id="Vector_4" d="M0.834375 1.82495L1.28125 2.2187L1.8 1.9312L1.56875 2.47808L2.00625 2.88433L1.4125 2.83433L1.15937 3.37183L1.025 2.7937L0.4375 2.7187L0.946875 2.4062L0.834375 1.82495ZM10.9531 7.20933L10.9656 7.80308L11.5281 7.99995L10.9656 8.1937L10.9531 8.78745L10.5938 8.31558L10.025 8.48745L10.3625 7.99995L10.025 7.51245L10.5938 7.68433L10.9531 7.20933ZM1.1625 12.6281L1.4125 13.1656L2.00625 13.1156L1.57187 13.5218L1.80313 14.0687L1.28437 13.7843L0.834375 14.1718L0.946875 13.5875L0.4375 13.2812L1.02813 13.2062L1.1625 12.6281ZM4.73125 4.84683L4.5375 5.04058L4.63438 6.50933L4.54063 6.5187L4.3625 5.17808L4.20312 5.33433L4.44063 6.53433C4.24858 6.57212 4.06591 6.64753 3.90313 6.7562L3.225 5.7437H3L3.825 6.81558C3.79933 6.83559 3.77432 6.85643 3.75 6.87808L2.77813 5.7687H2.50312V6.0437L3.60938 7.01245L3.54688 7.09058L2.475 6.2687V6.49058L3.49062 7.1687C3.38437 7.3312 3.30625 7.51245 3.26875 7.7062L2.07188 7.4687L1.9125 7.62495L3.25312 7.80308C3.24687 7.83433 3.24375 7.8687 3.24375 7.89995L1.775 7.8062L1.58125 7.99995L1.775 8.1937L3.24375 8.09683L3.25312 8.1937L1.9125 8.37183L2.06875 8.52808L3.26875 8.29058C3.30655 8.48262 3.38195 8.66529 3.49062 8.82808L2.475 9.5062V9.7312L3.54688 8.90933C3.56689 8.935 3.58773 8.96001 3.60938 8.98433L2.50312 9.95308V10.2281H2.78125L3.75 9.12183L3.82812 9.18433L3 10.2562H3.225L3.90313 9.24058C4.0625 9.34683 4.24688 9.42495 4.44063 9.46245L4.20312 10.6625L4.35938 10.8187L4.5375 9.47808C4.56875 9.48433 4.6 9.48745 4.63438 9.48745L4.54063 10.9562L4.73125 11.15L4.92812 10.9562L4.83125 9.48745L4.925 9.47808L5.10313 10.8218L5.2625 10.6625L5.025 9.46245C5.21704 9.42465 5.39971 9.34925 5.5625 9.24058L6.24062 10.2562H6.46562L5.64062 9.18433C5.6663 9.16431 5.69131 9.14347 5.71562 9.12183L6.6875 10.2281H6.9625V9.95308L5.85625 8.98433L5.91875 8.90933L6.99062 9.7312V9.5062L5.975 8.82808C6.08125 8.6687 6.15938 8.48433 6.19688 8.29058L7.39375 8.52808L7.55312 8.37183L6.2125 8.1937C6.21875 8.16245 6.22188 8.1312 6.22188 8.09683L7.69063 8.19058L7.88438 7.99995L7.69063 7.8062L6.22188 7.89995L6.2125 7.8062L7.55312 7.62808L7.39687 7.47183L6.19688 7.7062C6.15908 7.51416 6.08367 7.33149 5.975 7.1687L6.99062 6.49058V6.2687L5.91875 7.09058C5.89874 7.0649 5.87789 7.03989 5.85625 7.01558L6.9625 6.04683V5.7687H6.6875L5.71875 6.87808C5.69341 6.85638 5.66735 6.83554 5.64062 6.81558L6.46562 5.7437H6.24062L5.5625 6.7562C5.40313 6.64995 5.21875 6.57183 5.025 6.53433L5.2625 5.33745L5.10625 5.1812L4.92812 6.5187L4.83125 6.50933L4.925 5.04058L4.73125 4.84683Z" fill="#FCD116"/>
</g>
</g>
<defs>
<clipPath id="clip0_111_251">
<rect width="20" height="15" fill="white" transform="translate(0 0.5)"/>
</clipPath>
</defs>
</svg>
