<svg width="90" height="60" viewBox="0 0 90 60" fill="none" xmlns="http://www.w3.org/2000/svg">
<g id="GooglePay">
<rect y="0.84375" width="90" height="58.1707" rx="4" fill="white"/>
<g id="GPay">
<path fill-rule="evenodd" clip-rule="evenodd" d="M41.8185 36.4957C42.3935 36.4957 42.8596 36.0296 42.8596 35.4546V33.0815C42.8596 31.1959 44.4142 29.6673 46.2998 29.6673C47.7095 29.6673 48.8994 29.1833 49.8694 28.229L50.1022 27.987C51.8741 26.0111 51.7577 22.9329 49.8694 21.1048C48.9253 20.137 47.6319 19.6127 46.2998 19.6396H44.7773C42.5682 19.6396 40.7773 21.4305 40.7773 23.6396V35.4546C40.7773 36.0296 41.2435 36.4957 41.8185 36.4957ZM45.8036 27.5971C44.1778 27.5971 42.8599 26.2791 42.8599 24.6533C42.8599 23.0275 44.1778 21.7095 45.8036 21.7095H46.3524C47.1026 21.7095 47.8141 22.0052 48.3444 22.5429C49.4698 23.672 49.4957 25.5539 48.4091 26.7233C47.8788 27.3013 47.1285 27.6239 46.3524 27.5971H45.8036Z" fill="#3C4043"/>
<path fill-rule="evenodd" clip-rule="evenodd" d="M59.8151 25.8631C58.9227 25.0163 57.707 24.5861 56.1679 24.5861C54.61 24.5861 53.3567 25.0527 52.4144 25.9794C51.9813 26.4052 52.1328 27.1006 52.6417 27.4321C53.1471 27.7612 53.8088 27.597 54.2702 27.2087C54.8358 26.7328 55.5157 26.4949 56.3102 26.4949C57.0474 26.4949 57.7587 26.7771 58.3148 27.2879C58.858 27.7718 59.1684 28.4708 59.1684 29.2101C59.1684 29.4319 58.9272 29.5737 58.7237 29.4855C58.0027 29.1725 57.1384 29.0085 56.1162 29.0085C54.6677 29.0085 53.5037 29.358 52.6372 30.0704C51.7706 30.7828 51.3309 31.7238 51.3309 32.9201C51.305 34.0089 51.7577 35.0439 52.5596 35.7429C53.3744 36.4956 54.409 36.872 55.6247 36.872C57.0506 36.872 58.1831 36.2222 59.0474 34.9227C59.0583 34.9062 59.0769 34.896 59.0967 34.896C59.1292 34.896 59.1555 34.9224 59.1555 34.9549V35.6958C59.1555 36.1376 59.5136 36.4956 59.9553 36.4956H60.1514C60.7014 36.4956 61.1472 36.0498 61.1472 35.4998V29.3849C61.1472 27.8928 60.7075 26.7099 59.8151 25.8631ZM54.1636 34.3719C53.7368 34.0493 53.4781 33.525 53.4781 32.9605C53.4781 32.3287 53.7627 31.8045 54.3189 31.3878C54.888 30.9711 55.5995 30.756 56.4403 30.756C56.8019 30.7518 57.1385 30.7749 57.4503 30.8248C58.6241 31.0127 59.2851 32.33 58.6281 33.3207C58.4872 33.5331 58.3183 33.7357 58.1218 33.9283C57.501 34.5735 56.6602 34.9364 55.7806 34.9364C55.1985 34.9499 54.6293 34.7482 54.1636 34.3719Z" fill="#3C4043"/>
<path d="M64.9746 41.5632C65.3669 41.5632 65.7209 41.3278 65.8725 40.966L71.9789 26.3971C72.2647 25.7153 71.764 24.9625 71.0247 24.9625C70.598 24.9625 70.2151 25.2244 70.0604 25.6221L67.1036 33.2245C67.0994 33.2355 67.0888 33.2427 67.0771 33.2427C67.0654 33.2427 67.0549 33.2356 67.0506 33.2247L64.0195 25.6145C63.8627 25.2208 63.4817 24.9625 63.058 24.9625C62.3171 24.9625 61.8161 25.7182 62.1048 26.4006L65.5173 34.4688C65.8647 35.2901 65.8559 36.2187 65.4931 37.0333L64.0854 40.1936C63.7986 40.8374 64.2698 41.5632 64.9746 41.5632Z" fill="#3C4043"/>
<path d="M35.6709 28.1887C35.6709 27.0532 34.6805 26.2262 33.545 26.2262H28.5957C27.5675 26.2262 26.734 27.0597 26.734 28.0879C26.734 29.1161 27.5675 29.9496 28.5957 29.9496H29.0336C30.4603 29.9496 31.5447 31.3283 30.5487 32.3497C30.3523 32.5512 30.1362 32.7337 29.9027 32.8934C29.9027 34.2296 30.9859 35.3129 32.3222 35.3129H32.9032C34.6621 33.6327 35.6709 31.1459 35.6709 28.1887Z" fill="#4285F4"/>
<path d="M26.7344 37.6519C29.2434 37.6519 31.3641 36.7915 32.9032 35.3129L29.9027 32.8934C29.062 33.4848 27.9889 33.8209 26.7344 33.8209C24.3029 33.8209 22.2466 32.1138 21.5094 29.8287H20.4529C19.3292 29.8287 18.4183 30.7396 18.4183 31.8632C18.4183 32.1697 18.4846 32.4741 18.6309 32.7435C20.2737 35.7683 23.3678 37.6519 26.7344 37.6519Z" fill="#34A853"/>
<path d="M21.5094 29.8287C21.1556 28.7382 21.1246 27.5583 21.4159 26.4417C21.4721 26.226 21.5097 26.0052 21.5097 25.7822C21.5097 24.5947 20.547 23.6319 19.3594 23.6319H18.4182C17.6735 25.1571 17.3451 26.8376 17.4328 28.4998C17.54 30.5293 19.9258 31.1026 21.5094 29.8287Z" fill="#FBBC04"/>
<path d="M26.7344 22.1264C27.4162 22.1127 28.0844 22.2433 28.7027 22.502C29.6865 22.9138 30.9105 22.9478 31.65 22.1792C32.3787 21.4219 32.3653 20.1961 31.475 19.6377C30.0557 18.7475 28.419 18.2759 26.7344 18.2955C23.2166 18.2955 19.9961 20.3656 18.4182 23.6319C19.9063 24.8355 22.251 24.0656 23.846 23.0077C24.6853 22.451 25.6742 22.1264 26.7344 22.1264Z" fill="#EA4335"/>
</g>
</g>
</svg>
