<svg width="90" height="59" viewBox="0 0 90 59" fill="none" xmlns="http://www.w3.org/2000/svg">
<g id="MastercardDebit">
<rect y="0.0144043" width="90" height="58.1707" rx="4" fill="white"/>
<g id="Mastercard-debit">
<path d="M38.7472 41.7969C38.968 41.7917 39.1871 41.8368 39.388 41.9287C39.5679 42.0141 39.848 41.8974 39.848 41.6983V40.5192C39.848 40.3704 39.9686 40.2497 40.1175 40.2497C40.2663 40.2497 40.3869 40.3704 40.3869 40.5192V44.7205C40.3869 44.8694 40.2663 44.99 40.1175 44.99H39.9606C39.8984 44.99 39.848 44.9396 39.848 44.8773C39.848 44.7726 39.7095 44.7177 39.6257 44.7805C39.5517 44.8361 39.4721 44.8842 39.388 44.9241C39.1871 45.016 38.968 45.0611 38.7472 45.0559C38.5363 45.0576 38.3272 45.0161 38.1328 44.9339C37.9463 44.8556 37.7775 44.7404 37.6366 44.5951C37.494 44.4465 37.3818 44.2714 37.3064 44.0797C37.1465 43.6588 37.1465 43.1937 37.3064 42.7728C37.3819 42.5812 37.4941 42.4062 37.6366 42.2577C37.7776 42.1124 37.9463 41.9971 38.1328 41.9186C38.3273 41.8367 38.5363 41.7952 38.7472 41.7969ZM38.8097 42.304C38.658 42.3018 38.5074 42.3315 38.3677 42.3912C38.2389 42.4466 38.123 42.5285 38.0276 42.6315C37.9325 42.735 37.8588 42.8564 37.8107 42.9887C37.7597 43.1289 37.7341 43.2771 37.7353 43.4264C37.7341 43.5758 37.7603 43.7242 37.8125 43.8641C37.8614 43.9963 37.9356 44.1176 38.031 44.2213C38.1266 44.3244 38.2424 44.4068 38.3711 44.4632C38.5093 44.5237 38.6589 44.5541 38.8097 44.5523C38.9586 44.554 39.1063 44.5249 39.2434 44.4667C39.3714 44.4121 39.4867 44.3313 39.5819 44.2296C39.6778 44.126 39.7525 44.0047 39.8019 43.8724C39.9072 43.5849 39.9072 43.2694 39.8019 42.982C39.7521 42.8504 39.6774 42.7297 39.5819 42.6264C39.4866 42.5249 39.3713 42.4442 39.2434 42.3896C39.1063 42.3314 38.9586 42.3023 38.8097 42.304ZM42.7855 41.7969C42.9877 41.7948 43.188 41.8352 43.3737 41.9154C43.5499 41.992 43.7078 42.1054 43.8369 42.2479C43.9701 42.3974 44.0734 42.5712 44.1409 42.7598C44.2163 42.9705 44.2546 43.1927 44.2542 43.4166C44.2542 43.4517 44.2531 43.4863 44.2508 43.5202C44.2473 43.5748 44.2019 43.6172 44.1472 43.6172H42.2344C41.9967 43.6172 41.8073 43.8291 41.913 44.042C41.9712 44.1571 42.0509 44.2598 42.148 44.3447C42.2422 44.426 42.3517 44.4877 42.47 44.526C42.5931 44.5658 42.7218 44.5858 42.8511 44.5852C43.029 44.5864 43.2053 44.5528 43.3703 44.4863C43.4545 44.4521 43.5355 44.4107 43.6123 44.3627C43.7279 44.2904 43.8843 44.3039 43.9679 44.4117C44.0427 44.5081 44.0329 44.6472 43.9346 44.7195C43.8914 44.7514 43.8468 44.7812 43.8008 44.809C43.7012 44.8689 43.5954 44.918 43.4853 44.9554C43.3785 44.9914 43.2685 45.0173 43.1568 45.0328C43.0446 45.0481 42.9315 45.0559 42.8182 45.0559C42.5997 45.0585 42.3827 45.0188 42.1791 44.939C41.9907 44.8647 41.8199 44.7514 41.6781 44.6065C41.5354 44.4588 41.4241 44.2835 41.3511 44.0914C41.1957 43.6635 41.1957 43.1944 41.3511 42.7665C41.4233 42.5746 41.5334 42.3993 41.6748 42.2511C41.8142 42.1075 41.9814 41.9938 42.166 41.917C42.3624 41.8357 42.573 41.7948 42.7855 41.7969ZM42.7755 42.2742C42.6475 42.2724 42.5203 42.2953 42.4009 42.3417C42.2926 42.3845 42.1938 42.4483 42.1102 42.5294C42.0262 42.6122 41.9572 42.7091 41.9064 42.8156C41.8191 42.9992 41.9778 43.1826 42.1811 43.1826H43.3149C43.5228 43.1826 43.6871 42.9974 43.6019 42.8077C43.5542 42.7009 43.4874 42.6038 43.4048 42.5211C43.3248 42.4422 43.2298 42.3801 43.1255 42.3386C43.014 42.2947 42.8952 42.2729 42.7755 42.2742ZM46.7385 41.7969C46.9488 41.7951 47.1573 41.8365 47.351 41.9186C47.5367 41.9974 47.7048 42.1127 47.8452 42.2577C47.9881 42.4063 48.1009 42.5812 48.1774 42.7728C48.3394 43.1933 48.3394 43.6592 48.1774 44.0797C48.101 44.2714 47.9881 44.4464 47.8452 44.5951C47.7048 44.7401 47.5368 44.8553 47.351 44.9339C47.1573 45.0162 46.9488 45.0577 46.7385 45.0559C46.5165 45.0614 46.2963 45.0163 46.0943 44.9241C46.0112 44.8848 45.9325 44.8373 45.8594 44.7823C45.7761 44.7197 45.6374 44.7742 45.6374 44.8784C45.6374 44.94 45.5875 44.99 45.5258 44.99H45.3696C45.2217 44.99 45.1018 44.8701 45.1018 44.7222V40.5176C45.1018 40.3696 45.2217 40.2497 45.3696 40.2497C45.5175 40.2497 45.6374 40.3696 45.6374 40.5176V41.6995C45.6374 41.8972 45.9156 42.0131 46.0943 41.9287C46.2963 41.8365 46.5165 41.7914 46.7385 41.7969ZM46.6758 42.304C46.5268 42.3023 46.379 42.3314 46.2417 42.3896C46.1139 42.4442 45.9988 42.5248 45.9038 42.6264C45.8082 42.7296 45.7335 42.8504 45.6836 42.982C45.5781 43.2694 45.5781 43.585 45.6836 43.8724C45.7331 44.0047 45.8079 44.1261 45.9038 44.2296C45.9988 44.3313 46.1138 44.4121 46.2417 44.4667C46.379 44.5249 46.5268 44.554 46.6758 44.5523C46.8273 44.5544 46.9775 44.524 47.1162 44.4632C47.2442 44.4063 47.3594 44.324 47.4548 44.2213C47.5497 44.1178 47.6233 43.9963 47.6712 43.8641C47.7225 43.724 47.7483 43.5757 47.7471 43.4264C47.7482 43.277 47.722 43.1287 47.6699 42.9887C47.6206 42.8566 47.5463 42.7353 47.451 42.6315C47.3561 42.5289 47.241 42.4471 47.1131 42.3912C46.9751 42.3317 46.8261 42.3019 46.6758 42.304ZM49.4094 40.3781C49.5115 40.3779 49.6096 40.4181 49.6822 40.49C49.7182 40.5257 49.7466 40.5683 49.7659 40.6152C49.7851 40.6621 49.7947 40.7125 49.7942 40.7632C49.7944 40.8142 49.7843 40.8647 49.7644 40.9116C49.7452 40.9568 49.7172 40.9978 49.6819 41.032C49.6466 41.0662 49.6049 41.0929 49.5591 41.1106C49.5114 41.1294 49.4606 41.1389 49.4094 41.1385C49.3588 41.1389 49.3086 41.1295 49.2617 41.1106C49.2168 41.0927 49.176 41.0658 49.1418 41.0317C49.1076 40.9972 49.0803 40.9564 49.0614 40.9116C49.0414 40.8647 49.0313 40.8142 49.0317 40.7632C49.0311 40.7112 49.0412 40.6596 49.0614 40.6117C49.0805 40.5666 49.1078 40.5253 49.1418 40.49C49.1766 40.4543 49.2183 40.426 49.2642 40.4068C49.3102 40.3876 49.3596 40.3778 49.4094 40.3781ZM49.6822 44.7223C49.6822 44.8702 49.5623 44.99 49.4145 44.99C49.2667 44.99 49.1468 44.8702 49.1468 44.7223V42.1305C49.1468 41.9826 49.2667 41.8628 49.4145 41.8628C49.5623 41.8628 49.6822 41.9826 49.6822 42.1305V44.7223ZM52.8856 42.108C52.8856 42.2434 52.7758 42.3532 52.6404 42.3532H52.23C51.868 42.3532 51.5745 42.6467 51.5745 43.0087V43.8775C51.5721 43.9807 51.5872 44.0836 51.6191 44.1818C51.6445 44.2596 51.6865 44.3309 51.7422 44.3909C51.7939 44.4452 51.8575 44.4869 51.9279 44.5127C52.0032 44.5397 52.0827 44.5531 52.1626 44.5523C52.2781 44.5523 52.3926 44.5322 52.5012 44.493C52.528 44.4834 52.5545 44.473 52.5806 44.4618C52.7064 44.4076 52.8605 44.438 52.9331 44.5541C53.0007 44.6621 52.9734 44.8058 52.8612 44.8663C52.7896 44.9048 52.7154 44.9385 52.6391 44.9669C52.4719 45.0282 52.2949 45.0584 52.1168 45.0559C51.9627 45.0582 51.8094 45.0342 51.6634 44.9849C51.5346 44.9411 51.418 44.8672 51.3233 44.7694C51.2259 44.6657 51.153 44.5415 51.1097 44.4058C51.0571 44.2381 51.0321 44.063 51.0357 43.8873V42.6866C51.0357 42.5025 50.8864 42.3532 50.7022 42.3532H50.6139C50.4785 42.3532 50.3687 42.2434 50.3687 42.108C50.3687 41.9726 50.4785 41.8628 50.6139 41.8628H50.7022C50.8864 41.8628 51.0357 41.7135 51.0357 41.5293V41.1512C51.0357 41.0024 51.1563 40.8818 51.3051 40.8818C51.4539 40.8818 51.5745 41.0024 51.5745 41.1512V41.3723C51.5745 41.6432 51.7941 41.8628 52.065 41.8628H52.6404C52.7758 41.8628 52.8856 41.9726 52.8856 42.108Z" fill="black"/>
<path d="M50.0753 19.6004C50.0753 17.3913 48.2845 15.6004 46.0753 15.6004H43.8707C41.6616 15.6004 39.8707 17.3913 39.8707 19.6004V29.9742C39.8707 32.1834 41.6616 33.9742 43.8707 33.9742H46.0753C48.2845 33.9742 50.0753 32.1834 50.0753 29.9742V19.6004Z" fill="#FF5F00"/>
<path d="M40.5441 24.7875C40.5425 23.0179 40.9428 21.2712 41.7147 19.6795C42.4867 18.0879 43.61 16.6931 44.9997 15.6008C43.2791 14.246 41.2127 13.4034 39.0368 13.1695C36.8608 12.9356 34.663 13.3197 32.6947 14.2779C30.7263 15.2362 29.0667 16.7299 27.9057 18.5883C26.7446 20.4468 26.1289 22.5951 26.1289 24.7875C26.1289 26.98 26.7446 29.1282 27.9057 30.9867C29.0667 32.8451 30.7263 34.3389 32.6947 35.2971C34.663 36.2554 36.8608 36.6395 39.0368 36.4055C41.2127 36.1716 43.2791 35.3291 44.9997 33.9742C43.61 32.8819 42.4867 31.4871 41.7148 29.8955C40.9428 28.3038 40.5425 26.5571 40.5441 24.7875Z" fill="#EB001B"/>
<path d="M62.716 32.0277C62.7388 32.0277 62.7572 32.0092 62.7572 31.9864V31.7273C62.7572 31.6855 62.7911 31.6516 62.8329 31.6516H62.8704C62.8915 31.6516 62.9087 31.6345 62.9087 31.6133C62.9087 31.5922 62.8915 31.5751 62.8704 31.5751H62.5616C62.5404 31.5751 62.5233 31.5922 62.5233 31.6133C62.5233 31.6345 62.5404 31.6516 62.5616 31.6516H62.599C62.6408 31.6516 62.6748 31.6855 62.6748 31.7273V31.9864C62.6748 32.0092 62.6932 32.0277 62.716 32.0277ZM63.4642 32.0277C63.4873 32.0277 63.5059 32.009 63.5059 31.9859V31.6458C63.5059 31.6064 63.474 31.5744 63.4345 31.5744C63.4062 31.5744 63.3805 31.5912 63.3691 31.6172L63.3575 31.6438C63.3172 31.7361 63.1862 31.7361 63.146 31.6437L63.1345 31.6173C63.1232 31.5913 63.0975 31.5744 63.0691 31.5744C63.0297 31.5744 62.9977 31.6064 62.9977 31.6458V31.986C62.9977 32.009 63.0164 32.0277 63.0394 32.0277C63.0625 32.0277 63.0811 32.009 63.0811 31.986V31.9684C63.0811 31.905 63.168 31.8871 63.1931 31.9453C63.2023 31.9667 63.2233 31.9805 63.2466 31.9805H63.2566C63.2799 31.9805 63.301 31.9666 63.3103 31.9452C63.3354 31.8869 63.4225 31.9048 63.4225 31.9684V31.9859C63.4225 32.009 63.4412 32.0277 63.4642 32.0277Z" fill="#F79E1B"/>
<path d="M52.2074 13.1028C49.5925 13.0987 47.0531 13.9789 44.9997 15.6008C46.3882 16.6942 47.5104 18.0892 48.2822 19.6806C49.0541 21.272 49.4551 23.0182 49.4551 24.7875C49.4551 26.5568 49.0541 28.303 48.2822 29.8944C47.5104 31.4858 46.3882 32.8808 44.9997 33.9742C46.4615 35.1253 48.1764 35.9097 50.0022 36.2618C51.8279 36.614 53.7113 36.5238 55.4951 35.9987C57.279 35.4736 58.9118 34.5289 60.2572 33.2433C61.6027 31.9578 62.6218 30.3686 63.2298 28.6083C63.8377 26.848 64.0167 24.9676 63.752 23.1239C63.4873 21.2802 62.7864 19.5266 61.7078 18.0093C60.6293 16.4921 59.2043 15.2551 57.5516 14.4016C55.899 13.5481 54.0667 13.1028 52.2074 13.1028Z" fill="#F79E1B"/>
</g>
</g>
</svg>
