<svg width="90" height="60" viewBox="0 0 90 60" fill="none" xmlns="http://www.w3.org/2000/svg">
<g id="PayPal">
<rect y="0.84375" width="90" height="58.1707" rx="4" fill="white"/>
<g id="paypal">
<g id="XMLID 2">
<g id="XMLID 3">
<g id="XMLID 4">
<path id="XMLID 30" d="M37.1674 28.5834C37.0035 29.8154 36.0197 29.8154 35.1179 29.8154H34.626L35.0359 27.4335C35.0359 27.2693 35.1998 27.1871 35.3638 27.1871H35.6098C36.2656 27.1871 36.8395 27.1871 37.1674 27.5157C37.1674 27.8442 37.1674 28.1727 37.1674 28.5834ZM36.7575 25.2981H33.2323C32.9863 25.2981 32.8224 25.4624 32.7404 25.7088L31.3467 34.7433C31.3467 34.9076 31.4287 35.0718 31.6746 35.0718H33.3143C33.5602 35.0718 33.7242 34.9076 33.8061 34.6612L34.2161 32.1972C34.2161 31.9508 34.462 31.7865 34.708 31.7865H35.8557C38.1512 31.7865 39.4629 30.6367 39.8728 28.4191C40.0368 27.4335 39.8728 26.6943 39.4629 26.1194C38.8071 25.6266 37.9053 25.2981 36.7575 25.2981Z" fill="#263577"/>
<path id="XMLID 27" d="M44.8737 31.8687C44.7097 32.8543 43.9719 33.5114 42.9881 33.5114C42.4962 33.5114 42.0863 33.3471 41.8403 33.0186C41.5944 32.6901 41.5124 32.2794 41.5944 31.8687C41.7583 30.8832 42.4962 30.2261 43.48 30.2261C43.9719 30.2261 44.3818 30.3904 44.6277 30.7189C44.7917 30.9653 44.9557 31.376 44.8737 31.8687ZM47.1692 28.5835H45.5296C45.3656 28.5835 45.2836 28.6656 45.2016 28.8299L45.1196 29.3226L45.0377 29.1584C44.7097 28.6656 43.8899 28.4192 43.0701 28.4192C41.1845 28.4192 39.6268 29.8154 39.2989 31.7866C39.1349 32.7722 39.3809 33.6757 39.9547 34.3327C40.4466 34.9076 41.1845 35.154 42.0863 35.154C43.562 35.154 44.3818 34.1685 44.3818 34.1685L44.2998 34.6612C44.2998 34.8255 44.3818 34.9898 44.6277 34.9898H46.1034C46.3494 34.9898 46.5133 34.8255 46.5953 34.5791L47.4971 28.8299C47.4971 28.7477 47.4151 28.5835 47.1692 28.5835Z" fill="#263577"/>
<path id="XMLID 26" d="M56.105 28.5833H54.3834C54.2195 28.5833 54.0555 28.6654 53.9735 28.8296L51.678 32.2792L50.6942 28.9939C50.6122 28.7475 50.4483 28.6654 50.2023 28.6654H48.5627C48.3987 28.6654 48.2347 28.8296 48.3167 29.076L50.2023 34.4968L48.4807 36.9607C48.3167 37.125 48.4807 37.4535 48.7266 37.4535H50.4483C50.6122 37.4535 50.7762 37.3714 50.8582 37.2071L56.433 29.076C56.515 28.8296 56.351 28.5833 56.105 28.5833Z" fill="#263577"/>
<path id="XMLID 21" d="M62.0903 28.5834C61.9263 29.8154 60.9425 29.8154 60.0407 29.8154H59.5488L59.9587 27.4335C59.9587 27.2693 60.1227 27.1871 60.2867 27.1871H60.5326C61.1885 27.1871 61.7624 27.1871 62.0903 27.5157C62.1723 27.8442 62.1723 28.1727 62.0903 28.5834ZM61.6804 25.2981H58.1551C57.9092 25.2981 57.7452 25.4624 57.6632 25.7088L56.2695 34.7433C56.2695 34.9076 56.3515 35.0718 56.5975 35.0718H58.4011C58.565 35.0718 58.729 34.9897 58.729 34.7433L59.1389 32.1972C59.1389 31.9508 59.3849 31.7865 59.6308 31.7865H60.7786C63.0741 31.7865 64.3858 30.6367 64.7957 28.4191C64.9597 27.4335 64.7957 26.6943 64.3858 26.1194C63.8119 25.6266 62.9101 25.2981 61.6804 25.2981Z" fill="#2199D6"/>
<path id="XMLID 13" d="M69.8786 31.8687C69.7146 32.8543 68.9768 33.5114 67.993 33.5114C67.5011 33.5114 67.0912 33.3471 66.8452 33.0186C66.5993 32.6901 66.5173 32.2794 66.5993 31.8687C66.7632 30.8832 67.5011 30.2261 68.4849 30.2261C68.9768 30.2261 69.3867 30.3904 69.6326 30.7189C69.7966 30.9653 69.9605 31.376 69.8786 31.8687ZM72.1741 28.5835H70.5344C70.3705 28.5835 70.2885 28.6656 70.2065 28.8299L70.1245 29.3226L70.0425 29.1584C69.7146 28.6656 68.8948 28.4192 68.075 28.4192C66.1894 28.4192 64.6317 29.8154 64.3038 31.7866C64.1398 32.7722 64.3857 33.6757 64.9596 34.3327C65.4515 34.9076 66.1894 35.154 67.0912 35.154C68.5668 35.154 69.3867 34.1685 69.3867 34.1685L69.3047 34.6612C69.3047 34.8255 69.3867 34.9898 69.6326 34.9898H71.1083C71.3542 34.9898 71.5182 34.8255 71.6002 34.5791L72.502 28.8299C72.502 28.7477 72.338 28.5835 72.1741 28.5835Z" fill="#2199D6"/>
<path id="XMLID 12" d="M74.1417 25.5445L72.666 34.7433C72.666 34.9076 72.748 35.0718 72.994 35.0718H74.4696C74.7156 35.0718 74.8796 34.9076 74.9615 34.6612L76.3552 25.6266C76.3552 25.4624 76.2732 25.2981 76.0273 25.2981H74.3876C74.3057 25.2981 74.2237 25.4624 74.1417 25.5445Z" fill="#2199D6"/>
<path id="XMLID 10" d="M16.754 36.7965L16.9999 35.0717H16.426H13.5566L15.5242 22.5055C15.5242 22.5055 15.5242 22.4233 15.6062 22.4233H15.6882H20.5251C22.0828 22.4233 23.2306 22.7519 23.8044 23.4089C24.0504 23.7375 24.2143 24.066 24.2963 24.3945C24.3783 24.8052 24.3783 25.2158 24.2963 25.7908V26.1193L24.5423 26.2836C24.7882 26.3657 24.9522 26.53 25.1161 26.6942C25.3621 26.9406 25.5261 27.2691 25.5261 27.6798C25.608 28.0905 25.608 28.5833 25.4441 29.1582C25.2801 29.8152 25.1161 30.308 24.8702 30.8008C24.6243 31.2115 24.2963 31.54 23.9684 31.8686C23.6405 32.1149 23.1486 32.2792 22.7387 32.4435C22.2468 32.5256 21.7549 32.6077 21.181 32.6077H20.7711C20.5251 32.6077 20.2792 32.6899 20.0332 32.8541C19.8693 33.0184 19.7053 33.2648 19.6233 33.5112V33.6755L19.1314 36.7144V36.7965V36.8786C19.1314 36.8786 19.1314 36.8786 19.0495 36.8786H16.754V36.7965Z" fill="#263577"/>
<path id="XMLID 8" d="M24.8699 25.7908C24.8699 25.8729 24.8699 25.955 24.7879 26.0372C24.132 29.3225 22.0005 30.3902 19.2131 30.3902H17.8194C17.4914 30.3902 17.1635 30.6366 17.1635 30.9651L16.4257 35.5645L16.2617 36.8786C16.2617 37.125 16.4257 37.2893 16.5896 37.2893H19.1311C19.459 37.2893 19.705 37.0429 19.705 36.7965V36.6322L20.1969 33.6755V33.5112C20.2789 33.1827 20.5248 33.0184 20.7707 33.0184H21.1807C23.6401 33.0184 25.5257 32.0328 26.0176 29.1582C26.2636 27.9262 26.0996 26.9406 25.5257 26.2836C25.3618 26.1193 25.1158 25.955 24.8699 25.7908Z" fill="#2199D6"/>
<path id="XMLID 6" d="M24.2136 25.5445C24.1316 25.5445 24.0496 25.4624 23.8856 25.4624C23.8036 25.4624 23.6397 25.3802 23.5577 25.3802C23.1478 25.2981 22.7379 25.2981 22.328 25.2981H18.5568C18.4748 25.2981 18.3928 25.2981 18.3108 25.3802C18.1469 25.4624 17.9829 25.6266 17.9829 25.7909L17.1631 30.8831V31.0474C17.2451 30.7188 17.491 30.4724 17.8189 30.4724H19.2126C22 30.4724 24.1316 29.3226 24.7874 26.1194C24.7874 26.0373 24.7874 25.9552 24.8694 25.873C24.7055 25.7909 24.5415 25.7088 24.3775 25.6266C24.2955 25.5445 24.2136 25.5445 24.2136 25.5445Z" fill="#252C5E"/>
<path id="XMLID 5" d="M17.9834 25.7909C17.9834 25.6266 18.1474 25.4623 18.3113 25.3802C18.3933 25.3802 18.4753 25.2981 18.5573 25.2981H22.3284C22.7384 25.2981 23.2302 25.2981 23.5582 25.3802C23.6402 25.3802 23.8041 25.3802 23.8861 25.4624C23.9681 25.4624 24.0501 25.5445 24.214 25.5445C24.296 25.5445 24.296 25.5445 24.378 25.6266C24.542 25.7087 24.7059 25.7909 24.8699 25.873C25.0339 24.641 24.8699 23.8197 24.214 23.0805C23.4762 22.2592 22.1645 21.9307 20.5248 21.9307H15.6879C15.36 21.9307 15.032 22.1771 15.032 22.5056L13.0645 35.154C13.0645 35.4004 13.2284 35.6468 13.4744 35.6468H16.4257L17.1636 30.8831L17.9834 25.7909Z" fill="#263577"/>
</g>
</g>
</g>
</g>
</g>
</svg>
