<svg width="90" height="60" viewBox="0 0 90 60" fill="none" xmlns="http://www.w3.org/2000/svg">
<g id="Visa">
<rect y="0.84375" width="90" height="58.1707" rx="4" fill="white"/>
<path id="visa-logo" fill-rule="evenodd" clip-rule="evenodd" d="M31.9356 37.0004H27.9155L24.901 25.1397C24.7579 24.5942 24.4541 24.1118 24.0072 23.8845C22.8919 23.3132 21.6629 22.8585 20.3223 22.6292V22.1726H26.7983C27.6921 22.1726 28.3624 22.8585 28.4742 23.6552L30.0383 32.2107L34.0564 22.1726H37.9648L31.9356 37.0004ZM40.1986 37.0004H36.4019L39.5282 22.1726H43.3249L40.1986 37.0004ZM48.2385 26.2781C48.3502 25.4795 49.0205 25.0228 49.8026 25.0228C51.0316 24.9082 52.3703 25.1375 53.4875 25.7068L54.1578 22.5143C53.0406 22.0577 51.8117 21.8284 50.6964 21.8284C47.0115 21.8284 44.3301 23.8822 44.3301 26.7328C44.3301 28.9013 46.2294 30.0399 47.5701 30.7259C49.0205 31.4098 49.5791 31.8665 49.4674 32.5504C49.4674 33.5764 48.3502 34.033 47.2349 34.033C45.8942 34.033 44.5535 33.691 43.3266 33.1197L42.6562 36.3142C43.9969 36.8835 45.4473 37.1128 46.788 37.1128C50.9198 37.2255 53.4875 35.1736 53.4875 32.0938C53.4875 28.2153 48.2385 27.988 48.2385 26.2781ZM66.7724 37.0004L63.7578 22.1726H60.5198C59.8495 22.1726 59.1791 22.6292 58.9557 23.3132L53.3734 37.0004H57.2818L58.0619 34.8339H62.864L63.3109 37.0004H66.7724ZM61.0789 26.1641L62.1942 31.7524H59.0679L61.0789 26.1641Z" fill="#172B85"/>
</g>
</svg>
